<?xml version="1.0" encoding="UTF-8" standalone="no"?>
<!-- Created with Inkscape (http://www.inkscape.org/) -->

<svg
   xmlns:dc="http://purl.org/dc/elements/1.1/"
   xmlns:cc="http://creativecommons.org/ns#"
   xmlns:rdf="http://www.w3.org/1999/02/22-rdf-syntax-ns#"
   xmlns:svg="http://www.w3.org/2000/svg"
   xmlns="http://www.w3.org/2000/svg"
   xmlns:sodipodi="http://sodipodi.sourceforge.net/DTD/sodipodi-0.dtd"
   xmlns:inkscape="http://www.inkscape.org/namespaces/inkscape"
   width="810.667"
   height="533.333"
   viewBox="0 0 760 500"
   id="svg5655"
   version="1.1"
   inkscape:version="0.92.1 r15371"
   sodipodi:docname="doc-woman.svg">
  <defs
     id="defs5657" />
  <sodipodi:namedview
     id="base"
     pagecolor="#ffffff"
     bordercolor="#666666"
     borderopacity="1.0"
     inkscape:pageopacity="0.0"
     inkscape:pageshadow="2"
     inkscape:zoom="0.962373"
     inkscape:cx="427.3"
     inkscape:cy="145.762"
     inkscape:document-units="px"
     inkscape:current-layer="layer1"
     showgrid="false"
     units="px"
     inkscape:window-width="1920"
     inkscape:window-height="1016"
     inkscape:window-x="0"
     inkscape:window-y="27"
     inkscape:window-maximized="1" />
  <metadata
     id="metadata5660">
    <rdf:RDF>
      <cc:Work
         rdf:about="">
        <dc:format>image/svg+xml</dc:format>
        <dc:type
           rdf:resource="http://purl.org/dc/dcmitype/StillImage" />
        <dc:title></dc:title>
      </cc:Work>
    </rdf:RDF>
  </metadata>
  <g
     inkscape:label="Layer 1"
     inkscape:groupmode="layer"
     id="layer1"
     transform="translate(0,-552.362)">
    <g
       style="display:inline"
       id="g9890"
       transform="matrix(0.79558,0,0,0.79558,-2611.67,380.905)">
      <g
         id="g9892">
        <path
           style="fill:#967c99;fill-opacity:1"
           inkscape:connector-curvature="0"
           d="m 3745.91,643.843 c 0.73,0.446 1.9,0.542 2.62,0.214 0.71,-0.328 0.71,-0.955 0,-1.402 -0.73,-0.446 -1.9,-0.542 -2.61,-0.214 -0.13,0.06 -0.22,0.125 -0.3,0.198 l -20.63,-6.503 c 0.1,-0.298 -0.1,-0.638 -0.52,-0.911 -0.73,-0.446 -1.9,-0.542 -2.61,-0.214 -0.72,0.328 -0.71,0.955 0,1.402 0.72,0.446 1.89,0.542 2.61,0.214 0.1,-0.05 0.18,-0.101 0.26,-0.158 l 20.66,6.475 c -0.1,0.296 0.1,0.63 0.52,0.899 z"
           id="path9894"
           sodipodi:nodetypes="ccccccccccccc" />
        <path
           sodipodi:nodetypes="ccccccccccccc"
           id="path9896"
           d="m 3786.5,636.681 c 0.73,-0.333 1.82,-0.292 2.45,0.09 0.62,0.383 0.55,0.963 -0.17,1.296 -0.73,0.332 -1.82,0.291 -2.45,-0.09 -0.11,-0.07 -0.19,-0.141 -0.25,-0.217 l -19.81,3.73 c 0.1,0.287 -0.14,0.582 -0.58,0.785 -0.73,0.333 -1.82,0.292 -2.45,-0.09 -0.62,-0.383 -0.55,-0.963 0.18,-1.295 0.72,-0.333 1.81,-0.292 2.44,0.09 0.1,0.05 0.16,0.114 0.22,0.175 l 19.84,-3.7 c -0.1,-0.283 0.15,-0.574 0.58,-0.774 z"
           inkscape:connector-curvature="0"
           style="fill:#967c99;fill-opacity:0.8" />
        <path
           sodipodi:nodetypes="ccccccccccccc"
           id="path9898"
           d="m 3787.71,611.446 c 0.72,-0.333 1.82,-0.292 2.44,0.09 0.63,0.383 0.55,0.963 -0.17,1.295 -0.72,0.333 -1.81,0.292 -2.44,-0.09 -0.11,-0.07 -0.19,-0.14 -0.26,-0.216 l -19.8,3.73 c 0.1,0.286 -0.15,0.582 -0.59,0.785 -0.72,0.332 -1.81,0.292 -2.44,-0.09 -0.63,-0.383 -0.55,-0.963 0.17,-1.296 0.72,-0.332 1.82,-0.291 2.44,0.09 0.1,0.05 0.16,0.114 0.23,0.176 l 19.84,-3.701 c -0.1,-0.283 0.15,-0.573 0.58,-0.774 z"
           inkscape:connector-curvature="0"
           style="fill:#967c99;fill-opacity:0.8" />
        <path
           style="fill:#967c99;fill-opacity:1"
           inkscape:connector-curvature="0"
           d="m 3739.52,621.505 c -3.88,-1.467 -2.78,-3.539 2.45,-4.626 5.23,-1.088 12.61,-0.78 16.48,0.687 3.88,1.468 2.78,3.539 -2.45,4.627 -5.23,1.088 -12.61,0.78 -16.48,-0.688 z m 16.02,0.513 c 4.89,-1.016 5.91,-2.951 2.29,-4.322 -3.62,-1.371 -10.52,-1.659 -15.4,-0.643 -4.89,1.017 -5.91,2.952 -2.29,4.323 3.62,1.371 10.52,1.658 15.4,0.642 z"
           id="path9900" />
        <path
           id="path9902"
           d="m 3864.55,614.136 c -0.1,-0.277 0.35,-0.629 1.01,-0.786 0.55,-0.13 1.06,-0.09 1.28,0.09 l 12.68,-3.494 c 0,-0.269 0.4,-0.592 1.02,-0.741 0.67,-0.157 1.29,-0.06 1.39,0.216 0.1,0.277 -0.35,0.629 -1.01,0.787 -0.55,0.13 -1.07,0.08 -1.29,-0.09 l -12.67,3.509 c 0,0.267 -0.4,0.584 -1.02,0.731 -0.66,0.157 -1.29,0.06 -1.39,-0.217 z"
           inkscape:connector-curvature="0"
           style="fill:#967c99;fill-opacity:0.8" />
        <path
           style="fill:#967c99;fill-opacity:0.8"
           inkscape:connector-curvature="0"
           d="m 3811.74,604.211 c -0.1,-0.185 0.25,-0.405 0.69,-0.492 0.36,-0.07 0.7,-0.03 0.84,0.09 l 8.43,-1.988 c 0,-0.178 0.27,-0.38 0.69,-0.463 0.44,-0.09 0.85,0 0.91,0.176 0.1,0.185 -0.25,0.406 -0.69,0.493 -0.36,0.07 -0.7,0.03 -0.84,-0.09 l -8.43,1.997 c 0,0.177 -0.28,0.374 -0.69,0.456 -0.44,0.09 -0.85,0 -0.91,-0.177 z"
           id="path9904" />
        <g
           transform="translate(3453.76,-1.99489)"
           id="g9906">
          <path
             inkscape:connector-curvature="0"
             id="path9908"
             d="m 301.174,647.888 c -68.208,0 -123.837,6.481 -123.837,14.43 0,7.949 55.631,14.43 123.837,14.43 68.206,0 123.836,-6.49 123.836,-14.43 0,-7.939 -55.628,-14.43 -123.836,-14.43 z m 0,2.077 c 51.723,0 93.906,4.466 93.906,9.93 0,5.464 -42.184,9.931 -93.906,9.931 -51.721,0 -93.907,-4.461 -93.907,-9.931 0,-5.47 42.184,-9.93 93.907,-9.93 z"
             style="fill:#51075f;fill-opacity:1;stroke:none;stroke-width:0.768696;stroke-miterlimit:4;stroke-dasharray:none;stroke-opacity:1" />
          <path
             inkscape:connector-curvature="0"
             style="fill:#51075f;fill-opacity:1;stroke:none;stroke-width:0.768696;stroke-miterlimit:4;stroke-dasharray:none;stroke-opacity:1"
             d="m 301.174,667.313 c 40.06,0 72.733,-3.336 72.733,-7.418 0,-4.081 -32.672,-7.418 -72.733,-7.418 -40.06,0 -72.732,3.332 -72.732,7.418 0,4.086 32.673,7.418 72.732,7.418"
             class="cls-1"
             id="path9910" />
        </g>
        <path
           sodipodi:nodetypes="cccccccccccccc"
           style="fill:#967c99;fill-opacity:0.7"
           inkscape:connector-curvature="0"
           d="m 3538.95,638.948 c -0.83,0.07 -1.53,-0.398 -1.57,-1.043 0,-0.644 0.66,-1.053 1.49,-1.122 0.83,-0.07 1.48,0.231 1.52,0.875 0,0.112 0,0.22 0,0.326 l 21.49,4.887 c 0.26,-0.321 0.69,-0.554 1.2,-0.596 0.83,-0.07 1.53,0.399 1.57,1.043 0,0.644 -0.61,1.222 -1.44,1.29 -0.83,0.07 -1.53,-0.398 -1.57,-1.042 0,-0.09 0,-0.182 0,-0.27 l -21.48,-4.931 c -0.26,0.314 -0.69,0.542 -1.19,0.583 z"
           id="path9912" />
        <path
           id="path9914"
           d="m 3715.82,635.096 c 3.87,-1.468 2.78,-3.539 -2.45,-4.627 -5.23,-1.088 -12.61,-0.78 -16.49,0.688 -3.87,1.467 -2.78,3.539 2.45,4.626 5.23,1.088 12.61,0.78 16.49,-0.687 z m -16.03,0.513 c -4.88,-1.016 -5.91,-2.952 -2.29,-4.323 3.62,-1.371 10.52,-1.658 15.41,-0.642 4.88,1.016 5.91,2.951 2.28,4.322 -3.62,1.371 -10.51,1.659 -15.4,0.643 z"
           inkscape:connector-curvature="0"
           style="fill:#967c99;fill-opacity:0.8" />
        <path
           id="path9916"
           d="m 3692.58,618.617 c 2.75,-0.932 2.04,-2.409 -1.6,-3.301 -3.63,-0.891 -8.81,-0.858 -11.56,0.07 -2.75,0.932 -2.03,2.409 1.6,3.301 3.64,0.891 8.81,0.858 11.56,-0.07 z m -11.23,-0.04 c -3.4,-0.833 -4.07,-2.213 -1.5,-3.083 2.57,-0.871 7.41,-0.901 10.8,-0.07 3.4,0.833 4.07,2.213 1.5,3.084 -2.57,0.87 -7.41,0.9 -10.8,0.07 z"
           inkscape:connector-curvature="0"
           style="fill:#967c99;fill-opacity:0.8" />
        <path
           id="path9918"
           d="m 3985.25,650.333 c 0.81,0.05 1.47,-0.425 1.49,-1.05 0,-0.625 -0.61,-1.168 -1.42,-1.213 -0.8,-0.05 -1.47,0.425 -1.49,1.05 0,0.109 0,0.213 0.1,0.314 l -20.69,5.282 c -0.25,-0.304 -0.68,-0.518 -1.17,-0.546 -0.81,-0.04 -1.48,0.425 -1.5,1.05 0,0.625 0.62,1.168 1.43,1.213 0.8,0.04 1.47,-0.425 1.49,-1.05 0,-0.09 0,-0.176 0,-0.26 l 20.68,-5.325 c 0.25,0.298 0.67,0.508 1.16,0.535 z"
           inkscape:connector-curvature="0"
           style="fill:#967c99;fill-opacity:0.6" />
        <path
           id="path9920"
           d="m 3938.28,636.578 c -0.11,-0.275 0.33,-0.638 0.99,-0.813 0.54,-0.144 1.05,-0.112 1.28,0.06 l 12.59,-3.828 c 0,-0.268 0.37,-0.602 0.99,-0.767 0.66,-0.175 1.29,-0.09 1.4,0.18 0.11,0.274 -0.34,0.638 -0.99,0.812 -0.55,0.145 -1.07,0.112 -1.29,-0.06 L 3940.67,636 c 0,0.266 -0.38,0.594 -1,0.758 -0.66,0.174 -1.28,0.09 -1.39,-0.18 z"
           inkscape:connector-curvature="0"
           style="fill:#967c99;fill-opacity:0.7" />
        <path
           style="fill:#967c99;fill-opacity:0.8"
           inkscape:connector-curvature="0"
           d="m 3895.44,630.351 c 0.1,0.381 -0.57,0.763 -1.47,0.853 -0.73,0.07 -1.4,-0.07 -1.66,-0.339 l -17.21,2.364 c 0,0.36 -0.61,0.708 -1.46,0.793 -0.9,0.09 -1.69,-0.145 -1.78,-0.525 -0.1,-0.381 0.57,-0.763 1.46,-0.853 0.74,-0.08 1.41,0.08 1.67,0.345 l 17.2,-2.384 c 0,-0.355 0.63,-0.695 1.47,-0.779 0.89,-0.09 1.69,0.145 1.78,0.525 z"
           id="path9922" />
        <path
           id="path9924"
           d="m 3658.22,646.078 c 3.88,-1.467 2.78,-3.538 -2.45,-4.626 -5.23,-1.088 -12.61,-0.78 -16.49,0.688 -3.87,1.467 -2.77,3.538 2.45,4.626 5.23,1.088 12.61,0.78 16.49,-0.688 z m -16.02,0.514 c -4.89,-1.017 -5.91,-2.952 -2.29,-4.323 3.62,-1.371 10.51,-1.659 15.4,-0.642 4.88,1.016 5.91,2.951 2.29,4.322 -3.62,1.371 -10.52,1.659 -15.4,0.643 z"
           inkscape:connector-curvature="0"
           style="fill:#967c99;fill-opacity:0.8" />
        <path
           id="path9926"
           d="m 3605.09,631.504 c 3.88,-1.468 2.78,-3.539 -2.45,-4.627 -5.23,-1.087 -12.61,-0.779 -16.49,0.688 -3.87,1.467 -2.77,3.539 2.45,4.627 5.23,1.087 12.61,0.779 16.49,-0.688 z m -16.02,0.513 c -4.89,-1.016 -5.91,-2.951 -2.29,-4.322 3.62,-1.372 10.51,-1.659 15.4,-0.643 4.88,1.016 5.91,2.951 2.29,4.323 -3.62,1.371 -10.52,1.658 -15.4,0.642 z"
           inkscape:connector-curvature="0"
           style="fill:#967c99;fill-opacity:0.8" />
        <path
           id="path9928"
           d="m 3563.22,621.644 c 3.47,-1.314 2.49,-3.169 -2.19,-4.142 -4.68,-0.974 -11.29,-0.698 -14.76,0.615 -3.47,1.314 -2.49,3.168 2.19,4.142 4.68,0.974 11.29,0.698 14.76,-0.615 z m -14.34,0.459 c -4.38,-0.91 -5.3,-2.642 -2.05,-3.87 3.24,-1.227 9.41,-1.485 13.79,-0.575 4.37,0.91 5.29,2.642 2.05,3.87 -3.25,1.227 -9.42,1.485 -13.79,0.575 z"
           inkscape:connector-curvature="0"
           style="fill:#967c99;fill-opacity:0.7" />
        <path
           id="path9930"
           d="m 3621.05,611.578 c 2.84,-1.076 2.04,-2.595 -1.8,-3.393 -3.83,-0.798 -9.25,-0.572 -12.09,0.504 -2.84,1.076 -2.04,2.596 1.8,3.393 3.83,0.798 9.25,0.573 12.09,-0.504 z m -11.75,0.377 c -3.59,-0.746 -4.34,-2.165 -1.68,-3.171 2.65,-1.005 7.71,-1.216 11.29,-0.471 3.59,0.745 4.34,2.165 1.68,3.17 -2.65,1.006 -7.71,1.217 -11.29,0.472 z"
           inkscape:connector-curvature="0"
           style="fill:#967c99;fill-opacity:0.8" />
        <path
           id="path9932"
           d="m 3655.28,620.251 c 3.29,-1.248 2.36,-3.01 -2.09,-3.935 -4.44,-0.925 -10.72,-0.663 -14.02,0.585 -3.29,1.248 -2.36,3.01 2.09,3.935 4.44,0.925 10.72,0.663 14.02,-0.585 z m -13.63,0.436 c -4.15,-0.864 -5.03,-2.51 -1.95,-3.676 3.08,-1.166 8.95,-1.41 13.1,-0.546 4.16,0.864 5.03,2.51 1.95,3.676 -3.08,1.166 -8.95,1.41 -13.1,0.546 z"
           inkscape:connector-curvature="0"
           style="fill:#967c99;fill-opacity:0.8" />
        <path
           id="path9934"
           d="m 3811.51,635.852 c 3.87,-1.468 2.78,-3.539 -2.45,-4.627 -5.23,-1.088 -12.61,-0.78 -16.49,0.688 -3.87,1.467 -2.78,3.538 2.45,4.626 5.23,1.088 12.61,0.78 16.49,-0.687 z m -16.03,0.513 c -4.88,-1.016 -5.91,-2.952 -2.29,-4.323 3.62,-1.371 10.52,-1.658 15.41,-0.642 4.88,1.016 5.91,2.951 2.28,4.322 -3.62,1.371 -10.51,1.659 -15.4,0.643 z"
           inkscape:connector-curvature="0"
           style="fill:#967c99;fill-opacity:0.8" />
        <path
           id="path9936"
           d="m 3809.79,609.829 c 3.41,-1.292 2.45,-3.115 -2.16,-4.073 -4.6,-0.957 -11.1,-0.686 -14.51,0.606 -3.41,1.292 -2.45,3.115 2.16,4.073 4.6,0.957 11.1,0.686 14.51,-0.606 z m -14.11,0.452 c -4.3,-0.895 -5.2,-2.598 -2.01,-3.805 3.19,-1.207 9.26,-1.46 13.56,-0.566 4.3,0.895 5.2,2.598 2.01,3.805 -3.19,1.207 -9.26,1.46 -13.56,0.566 z"
           inkscape:connector-curvature="0"
           style="fill:#967c99;fill-opacity:0.8" />
        <path
           id="path9938"
           d="m 3839.51,601.251 c 2.63,-0.998 1.89,-2.407 -1.67,-3.146 -3.56,-0.74 -8.58,-0.531 -11.21,0.467 -2.64,0.998 -1.89,2.407 1.66,3.147 3.56,0.74 8.58,0.53 11.22,-0.468 z m -10.9,0.349 c -3.33,-0.691 -4.02,-2.007 -1.56,-2.94 2.46,-0.932 7.15,-1.128 10.48,-0.437 3.32,0.692 4.02,2.008 1.55,2.94 -2.46,0.933 -7.15,1.128 -10.47,0.437 z"
           inkscape:connector-curvature="0"
           style="fill:#967c99;fill-opacity:0.8" />
        <path
           id="path9940"
           d="m 3860.74,618.361 c 3.26,-1.233 2.34,-2.973 -2.06,-3.887 -4.39,-0.913 -10.59,-0.655 -13.84,0.578 -3.26,1.233 -2.34,2.973 2.05,3.887 4.4,0.914 10.6,0.655 13.85,-0.578 z m -13.46,0.431 c -4.1,-0.854 -4.96,-2.479 -1.92,-3.631 3.04,-1.152 8.83,-1.393 12.94,-0.54 4.1,0.854 4.96,2.48 1.92,3.631 -3.04,1.152 -8.84,1.394 -12.94,0.54 z"
           inkscape:connector-curvature="0"
           style="fill:#967c99;fill-opacity:0.8" />
        <path
           id="path9942"
           d="m 3898.94,607.88 c 2.84,-1.076 2.04,-2.595 -1.8,-3.393 -3.83,-0.798 -9.24,-0.572 -12.09,0.504 -2.84,1.077 -2.04,2.596 1.8,3.394 3.84,0.798 9.25,0.572 12.09,-0.505 z m -11.75,0.377 c -3.58,-0.746 -4.34,-2.165 -1.68,-3.171 2.66,-1.005 7.71,-1.216 11.3,-0.471 3.58,0.745 4.33,2.165 1.68,3.171 -2.66,1.005 -7.72,1.216 -11.3,0.471 z"
           inkscape:connector-curvature="0"
           style="fill:#967c99;fill-opacity:0.8" />
        <path
           id="path9944"
           d="m 3865.82,636.794 c 3.87,-1.468 2.77,-3.539 -2.46,-4.627 -5.22,-1.088 -12.6,-0.78 -16.48,0.688 -3.88,1.467 -2.78,3.539 2.45,4.626 5.23,1.088 12.61,0.78 16.49,-0.687 z m -16.03,0.513 c -4.88,-1.016 -5.91,-2.952 -2.29,-4.323 3.62,-1.371 10.52,-1.658 15.4,-0.642 4.89,1.016 5.91,2.951 2.29,4.322 -3.62,1.371 -10.51,1.659 -15.4,0.643 z"
           inkscape:connector-curvature="0"
           style="fill:#967c99;fill-opacity:0.8" />
        <path
           id="path9946"
           d="m 3919.19,630.093 c 3.87,-1.467 2.77,-3.539 -2.45,-4.626 -5.23,-1.088 -12.61,-0.78 -16.49,0.687 -3.88,1.468 -2.78,3.539 2.45,4.627 5.23,1.088 12.61,0.78 16.49,-0.688 z m -16.03,0.513 c -4.88,-1.016 -5.91,-2.951 -2.29,-4.322 3.62,-1.371 10.52,-1.659 15.4,-0.643 4.89,1.017 5.92,2.952 2.29,4.323 -3.62,1.371 -10.51,1.659 -15.4,0.642 z"
           inkscape:connector-curvature="0"
           style="fill:#967c99;fill-opacity:0.8" />
        <path
           id="path9948"
           d="m 3979.02,630.799 c 3.88,-1.468 2.78,-3.539 -2.45,-4.627 -5.23,-1.088 -12.61,-0.78 -16.48,0.688 -3.88,1.467 -2.78,3.538 2.45,4.626 5.22,1.088 12.61,0.78 16.48,-0.687 z m -16.02,0.513 c -4.89,-1.016 -5.91,-2.952 -2.29,-4.323 3.62,-1.371 10.51,-1.658 15.4,-0.642 4.88,1.016 5.91,2.951 2.29,4.322 -3.62,1.371 -10.52,1.659 -15.4,0.643 z"
           inkscape:connector-curvature="0"
           style="fill:#967c99;fill-opacity:0.7" />
        <path
           id="path9950"
           d="m 3937.99,644.199 c 3.88,-1.467 2.78,-3.538 -2.45,-4.626 -5.23,-1.088 -12.61,-0.78 -16.48,0.687 -3.88,1.468 -2.78,3.539 2.45,4.627 5.23,1.088 12.61,0.78 16.48,-0.688 z m -16.02,0.513 c -4.89,-1.016 -5.91,-2.951 -2.29,-4.322 3.62,-1.371 10.52,-1.659 15.4,-0.643 4.89,1.017 5.91,2.952 2.29,4.323 -3.62,1.371 -10.52,1.659 -15.4,0.642 z"
           inkscape:connector-curvature="0"
           style="fill:#967c99;fill-opacity:0.7" />
        <path
           id="path9952"
           d="m 4024.63,649.666 c 6.43,-2.433 4.61,-5.868 -4.06,-7.672 -8.67,-1.804 -20.91,-1.293 -27.34,1.14 -6.43,2.434 -4.61,5.869 4.06,7.672 8.67,1.804 20.91,1.294 27.34,-1.14 z m -26.57,0.851 c -8.1,-1.685 -9.8,-4.894 -3.8,-7.168 6.01,-2.274 17.44,-2.75 25.54,-1.065 8.1,1.685 9.8,4.894 3.8,7.168 -6.01,2.273 -17.44,2.75 -25.54,1.065 z"
           inkscape:connector-curvature="0"
           style="fill:#967c99;fill-opacity:0.6" />
        <path
           id="path9954"
           d="m 3952.64,661.685 c 5.33,-2.015 3.82,-4.859 -3.36,-6.353 -7.18,-1.494 -17.32,-1.071 -22.64,0.944 -5.32,2.015 -3.81,4.86 3.37,6.353 7.18,1.494 17.31,1.071 22.63,-0.944 z m -22,0.705 c -6.71,-1.396 -8.12,-4.053 -3.14,-5.936 4.97,-1.882 14.44,-2.277 21.15,-0.882 6.7,1.395 8.11,4.053 3.14,5.936 -4.97,1.882 -14.44,2.277 -21.15,0.882 z"
           inkscape:connector-curvature="0"
           style="fill:#967c99;fill-opacity:0.6" />
        <path
           id="path9956"
           d="m 3597.18,650.723 c 5.73,-2.17 4.11,-5.233 -3.62,-6.842 -7.73,-1.608 -18.65,-1.153 -24.38,1.017 -5.73,2.17 -4.11,5.233 3.63,6.842 7.73,1.608 18.64,1.153 24.37,-1.017 z m -23.69,0.759 c -7.23,-1.503 -8.74,-4.365 -3.39,-6.392 5.36,-2.028 15.55,-2.453 22.78,-0.95 7.22,1.502 8.74,4.364 3.38,6.392 -5.35,2.027 -15.55,2.452 -22.77,0.95 z"
           inkscape:connector-curvature="0"
           style="fill:#967c99;fill-opacity:0.6" />
        <path
           id="path9958"
           d="m 3533.45,635.315 c 4.75,-1.797 3.4,-4.333 -3,-5.665 -6.4,-1.332 -15.44,-0.955 -20.18,0.842 -4.75,1.796 -3.41,4.333 3,5.664 6.4,1.332 15.44,0.955 20.18,-0.841 z m -19.62,0.628 c -5.98,-1.244 -7.24,-3.614 -2.8,-5.293 4.43,-1.678 12.87,-2.031 18.86,-0.786 5.98,1.244 7.23,3.613 2.8,5.292 -4.43,1.679 -12.88,2.031 -18.86,0.787 z"
           inkscape:connector-curvature="0"
           style="fill:#967c99;fill-opacity:0.7" />
        <path
           id="path9960"
           d="m 3532.31,671.127 c 7.64,-2.875 5.48,-6.934 -4.84,-9.066 -10.31,-2.131 -24.87,-1.528 -32.51,1.348 -7.65,2.875 -5.48,6.934 4.83,9.066 10.31,2.131 24.87,1.528 32.52,-1.348 z m -31.61,1.006 c -9.64,-1.991 -11.66,-5.784 -4.52,-8.47 7.15,-2.687 20.75,-3.251 30.38,-1.259 9.64,1.991 11.66,5.783 4.52,8.47 -7.14,2.687 -20.75,3.25 -30.38,1.259 z"
           inkscape:connector-curvature="0"
           style="fill:#967c99;fill-opacity:0.6" />
        <path
           id="path9962"
           d="m 3615.44,695.717 c 8.28,-3.137 5.94,-7.563 -5.23,-9.887 -11.18,-2.325 -26.95,-1.667 -35.23,1.469 -8.29,3.136 -5.94,7.562 5.23,9.887 11.18,2.325 26.95,1.667 35.23,-1.469 z m -34.24,1.096 c -10.44,-2.171 -12.63,-6.307 -4.89,-9.237 7.73,-2.93 22.47,-3.545 32.91,-1.373 10.44,2.171 12.63,6.307 4.89,9.237 -7.74,2.93 -22.47,3.545 -32.91,1.373 z"
           inkscape:connector-curvature="0"
           style="fill:#967c99;fill-opacity:0.4" />
        <path
           id="path9964"
           d="m 3490.47,720.102 c 13.38,-5.066 9.59,-12.216 -8.46,-15.971 -18.05,-3.755 -43.53,-2.692 -56.91,2.373 -13.38,5.066 -9.6,12.217 8.46,15.972 18.05,3.756 43.53,2.693 56.91,-2.374 z m -55.32,1.772 c -16.87,-3.508 -20.4,-10.189 -7.9,-14.922 12.5,-4.734 36.3,-5.726 53.17,-2.218 16.86,3.508 20.4,10.189 7.9,14.922 -12.5,4.733 -36.31,5.726 -53.17,2.218 z"
           inkscape:connector-curvature="0"
           style="fill:#967c99;fill-opacity:0.4" />
        <path
           id="path9966"
           d="m 3607.81,779.689 c 18.32,-6.934 13.13,-16.722 -11.58,-21.861 -24.7,-5.14 -59.58,-3.685 -77.89,3.249 -18.32,6.934 -13.13,16.721 11.57,21.861 24.72,5.141 59.59,3.686 77.9,-3.249 z m -75.72,2.425 c -23.08,-4.802 -27.92,-13.946 -10.81,-20.425 17.11,-6.479 49.69,-7.837 72.78,-3.036 23.08,4.802 27.92,13.946 10.81,20.425 -17.11,6.479 -49.69,7.838 -72.78,3.036 z"
           inkscape:connector-curvature="0"
           style="fill:#967c99;fill-opacity:0.4" />
        <path
           id="path9968"
           d="m 3715.44,706.152 c 8.63,-3.267 6.18,-7.878 -5.46,-10.3 -11.64,-2.421 -28.07,-1.735 -36.69,1.531 -8.63,3.267 -6.19,7.878 5.45,10.299 11.64,2.422 28.07,1.736 36.7,-1.53 z m -35.67,1.142 c -10.88,-2.262 -13.16,-6.57 -5.1,-9.622 8.06,-3.053 23.41,-3.693 34.29,-1.431 10.87,2.262 13.15,6.57 5.09,9.623 -8.06,3.052 -23.41,3.692 -34.28,1.43 z"
           inkscape:connector-curvature="0"
           style="fill:#967c99;fill-opacity:0.4" />
        <path
           id="path9970"
           d="m 3808.68,792.994 c 20.76,-7.86 14.88,-18.955 -13.12,-24.781 -28.01,-5.826 -67.55,-4.177 -88.31,3.683 -20.76,7.86 -14.88,18.955 13.13,24.781 28.01,5.827 67.54,4.177 88.3,-3.683 z m -85.83,2.749 c -26.17,-5.443 -31.66,-15.809 -12.26,-23.153 19.39,-7.344 56.33,-8.884 82.5,-3.441 26.16,5.443 31.65,15.808 12.26,23.152 -19.4,7.344 -56.34,8.884 -82.5,3.442 z"
           inkscape:connector-curvature="0"
           style="fill:#967c99;fill-opacity:0.4" />
        <path
           id="path9972"
           d="m 3824.98,724.163 c 13.24,-5.012 9.49,-12.087 -8.37,-15.803 -17.86,-3.715 -43.07,-2.663 -56.31,2.349 -13.24,5.013 -9.49,12.088 8.37,15.803 17.86,3.716 43.07,2.664 56.31,-2.349 z m -54.73,1.753 c -16.69,-3.471 -20.19,-10.081 -7.82,-14.764 12.37,-4.684 35.92,-5.666 52.61,-2.195 16.68,3.471 20.19,10.081 7.82,14.765 -12.37,4.683 -35.93,5.665 -52.61,2.194 z"
           inkscape:connector-curvature="0"
           style="fill:#967c99;fill-opacity:0.4" />
        <path
           id="path9974"
           d="m 4149.68,753.28 c 21.58,-8.173 15.47,-19.709 -13.65,-25.768 -29.12,-6.058 -70.23,-4.343 -91.82,3.83 -21.58,8.173 -15.47,19.71 13.65,25.768 29.13,6.059 70.23,4.344 91.82,-3.83 z m -89.25,2.859 c -27.21,-5.66 -32.92,-16.439 -12.75,-24.075 20.17,-7.637 58.57,-9.238 85.78,-3.579 27.21,5.66 32.92,16.439 12.75,24.075 -20.17,7.637 -58.57,9.238 -85.78,3.579 z"
           inkscape:connector-curvature="0"
           style="fill:#967c99;fill-opacity:0.4" />
        <path
           id="path9976"
           d="m 4053.15,682.881 c 11.01,-4.168 7.9,-10.051 -6.95,-13.14 -14.86,-3.09 -35.82,-2.215 -46.83,1.953 -11,4.168 -7.89,10.05 6.96,13.14 14.86,3.09 35.82,2.215 46.82,-1.953 z m -45.51,1.457 c -13.87,-2.886 -16.78,-8.382 -6.5,-12.276 10.29,-3.895 29.87,-4.711 43.75,-1.825 13.87,2.886 16.78,8.383 6.5,12.277 -10.29,3.894 -29.87,4.71 -43.75,1.824 z"
           inkscape:connector-curvature="0"
           style="fill:#967c99;fill-opacity:0.4" />
        <path
           id="path9978"
           d="m 4030.94,817.255 c 28.93,-10.952 20.74,-26.41 -18.28,-34.528 -39.03,-8.118 -94.11,-5.819 -123.04,5.132 -28.92,10.952 -20.73,26.41 18.29,34.528 39.03,8.119 94.11,5.821 123.03,-5.132 z m -119.59,3.83 c -36.46,-7.584 -44.1,-22.026 -17.08,-32.259 27.02,-10.233 78.48,-12.379 114.95,-4.795 36.45,7.584 44.11,22.027 17.08,32.259 -27.03,10.233 -78.49,12.379 -114.95,4.795 z"
           inkscape:connector-curvature="0"
           style="fill:#967c99;fill-opacity:0.4" />
        <path
           style="fill:#967c99;fill-opacity:0.8"
           inkscape:connector-curvature="0"
           d="m 3637.59,615.121 c 0.43,0.197 1.08,0.172 1.45,-0.05 0.37,-0.227 0.32,-0.57 -0.1,-0.767 -0.43,-0.197 -1.08,-0.173 -1.45,0.05 -0.1,0.04 -0.11,0.08 -0.15,0.128 l -11.73,-2.209 c 0,-0.17 -0.1,-0.345 -0.35,-0.465 -0.42,-0.197 -1.07,-0.173 -1.44,0.05 -0.37,0.227 -0.33,0.57 0.1,0.767 0.43,0.197 1.07,0.173 1.45,-0.05 0.1,-0.03 0.1,-0.07 0.13,-0.104 l 11.75,2.192 c 0,0.167 0.1,0.339 0.34,0.458 z"
           id="path9980"
           sodipodi:nodetypes="ccccccccccccc" />
        <path
           style="fill:#967c99;fill-opacity:0.8"
           inkscape:connector-curvature="0"
           d="m 3632.87,621.319 c 0.72,-0.332 1.82,-0.291 2.44,0.09 0.63,0.383 0.55,0.963 -0.17,1.295 -0.72,0.333 -1.81,0.292 -2.44,-0.09 -0.11,-0.07 -0.19,-0.14 -0.26,-0.217 l -19.8,3.731 c 0.1,0.286 -0.15,0.582 -0.59,0.785 -0.72,0.332 -1.81,0.292 -2.44,-0.09 -0.63,-0.383 -0.55,-0.963 0.17,-1.296 0.72,-0.332 1.82,-0.292 2.44,0.09 0.1,0.05 0.16,0.114 0.23,0.176 l 19.84,-3.701 c -0.1,-0.283 0.15,-0.573 0.58,-0.774 z"
           id="path9982"
           sodipodi:nodetypes="ccccccccccccc" />
        <path
           sodipodi:nodetypes="ccccccccccccc"
           id="path9984"
           d="m 3582.58,626.56 c 0.53,0.243 1.33,0.213 1.79,-0.07 0.46,-0.281 0.4,-0.706 -0.13,-0.95 -0.53,-0.244 -1.33,-0.214 -1.79,0.07 -0.1,0.05 -0.14,0.103 -0.18,0.159 l -14.52,-2.735 c 0,-0.21 -0.11,-0.426 -0.43,-0.575 -0.53,-0.244 -1.33,-0.214 -1.79,0.07 -0.46,0.28 -0.41,0.706 0.12,0.949 0.53,0.244 1.33,0.214 1.79,-0.07 0.1,-0.04 0.12,-0.08 0.17,-0.129 l 14.54,2.713 c 0,0.207 0.11,0.42 0.43,0.567 z"
           inkscape:connector-curvature="0"
           style="fill:#967c99;fill-opacity:0.7" />
        <path
           sodipodi:nodetypes="ccccccccccccc"
           id="path9986"
           d="m 3674.03,616.685 c 0.46,-0.131 1.11,0 1.45,0.28 0.33,0.285 0.23,0.622 -0.23,0.753 -0.46,0.131 -1.1,0 -1.44,-0.28 -0.1,-0.05 -0.1,-0.1 -0.13,-0.152 l -12.1,0.385 c 0,0.175 -0.14,0.332 -0.42,0.412 -0.46,0.13 -1.11,0 -1.44,-0.28 -0.34,-0.285 -0.24,-0.623 0.22,-0.753 0.46,-0.131 1.1,0 1.44,0.279 0,0.04 0.1,0.08 0.12,0.125 l 12.12,-0.364 c 0,-0.172 0.14,-0.326 0.41,-0.405 z"
           inkscape:connector-curvature="0"
           style="fill:#967c99;fill-opacity:0.8" />
        <path
           sodipodi:nodetypes="ccccccccccccc"
           id="path9988"
           d="m 3632.93,641.462 c 0.73,0.447 1.9,0.543 2.62,0.215 0.71,-0.328 0.71,-0.956 0,-1.402 -0.73,-0.446 -1.9,-0.542 -2.61,-0.215 -0.13,0.06 -0.22,0.126 -0.3,0.198 l -20.63,-6.502 c 0.1,-0.298 -0.1,-0.638 -0.52,-0.911 -0.73,-0.446 -1.9,-0.542 -2.61,-0.215 -0.72,0.328 -0.71,0.956 0,1.402 0.72,0.447 1.89,0.543 2.61,0.215 0.1,-0.05 0.18,-0.101 0.26,-0.159 l 20.66,6.476 c -0.1,0.295 0.1,0.629 0.52,0.898 z"
           inkscape:connector-curvature="0"
           style="fill:#967c99;fill-opacity:0.8" />
        <path
           style="fill:#967c99;fill-opacity:0.6"
           inkscape:connector-curvature="0"
           d="m 3626.24,657.534 c 0.71,0.355 1.8,0.35 2.44,-0.01 0.64,-0.362 0.58,-0.942 -0.13,-1.297 -0.71,-0.355 -1.8,-0.35 -2.44,0.01 -0.11,0.06 -0.19,0.134 -0.26,0.207 l -19.62,-4.365 c 0.1,-0.284 -0.12,-0.585 -0.56,-0.802 -0.71,-0.355 -1.8,-0.35 -2.43,0.01 -0.64,0.362 -0.58,0.942 0.13,1.297 0.7,0.355 1.8,0.35 2.43,-0.01 0.1,-0.05 0.17,-0.108 0.23,-0.167 l 19.65,4.337 c 0,0.28 0.14,0.576 0.56,0.79 z"
           id="path9990"
           sodipodi:nodetypes="ccccccccccccc" />
        <path
           sodipodi:nodetypes="ccccccccccccc"
           id="path9992"
           d="m 3539.9,661.784 c -0.73,0.491 -1.95,0.636 -2.7,0.323 -0.76,-0.312 -0.77,-0.964 0,-1.455 0.74,-0.492 1.95,-0.636 2.71,-0.324 0.13,0.06 0.23,0.122 0.31,0.194 l 21.16,-7.542 c -0.11,-0.306 0.1,-0.665 0.51,-0.966 0.73,-0.491 1.94,-0.636 2.7,-0.323 0.76,0.313 0.77,0.965 0,1.456 -0.74,0.491 -1.95,0.636 -2.71,0.323 -0.11,-0.05 -0.19,-0.1 -0.27,-0.155 l -21.2,7.516 c 0.1,0.304 -0.1,0.657 -0.51,0.953 z"
           inkscape:connector-curvature="0"
           style="fill:#967c99;fill-opacity:0.6" />
        <path
           inkscape:connector-curvature="0"
           id="path9994"
           d="m 3586.83,655.649 a 1.07643,2.28155 87.2647 0 0 -2.13,1.223 1.07643,2.28155 87.2647 0 0 2,0.926 l 2.36,18.847 a 1.4866,3.15092 87.2647 0 0 -2.35,1.618 1.4866,3.15092 87.2647 0 0 3.34,1.268 1.4866,3.15092 87.2647 0 0 2.95,-1.689 1.4866,3.15092 87.2647 0 0 -3.06,-1.278 l -2.44,-18.817 a 1.07643,2.28155 87.2647 0 0 1.75,-1.181 1.07643,2.28155 87.2647 0 0 -2.42,-0.917 z"
           style="fill:#967c99;fill-opacity:0.6" />
        <path
           inkscape:connector-curvature="0"
           id="path9996"
           transform="translate(3406.22,-287.362)"
           d="m 159.1,980.703 a 2.01162,2.37971 87.7366 0 0 -2.297,2.104 2.01162,2.37971 87.7366 0 0 0,0.09 l -55.907,10.875 a 2.77813,3.28649 87.7366 0 0 -3.1694,-1.738 2.77813,3.28649 87.7366 0 0 -3.1758,2.906 2.77813,3.28649 87.7366 0 0 3.3945,2.647 2.77813,3.28649 87.7366 0 0 3.1737,-2.906 2.77813,3.28649 87.7366 0 0 0,-0.01 L 157.1,983.726 a 2.01162,2.37971 87.7366 0 0 2.154,1 2.01162,2.37971 87.7366 0 0 2.297,-2.104 2.01162,2.37971 87.7366 0 0 -2.457,-1.916 z"
           style="fill:#967c99;fill-opacity:0.4" />
        <path
           inkscape:connector-curvature="0"
           id="path9998"
           transform="translate(3406.22,-287.362)"
           d="m 218.135,980.084 a 2.01162,2.37971 89.7226 0 0 -2.369,2.023 2.01162,2.37971 89.7226 0 0 2.388,2 2.01162,2.37971 89.7226 0 0 2.174,-1.222 l 31.961,3.592 a 2.77813,3.28649 89.7226 0 0 3.295,2.695 2.77813,3.28649 89.7226 0 0 3.273,-2.795 2.77813,3.28649 89.7226 0 0 -3.298,-2.762 2.77813,3.28649 89.7226 0 0 -3.12,1.949 l -31.916,-3.511 a 2.01162,2.37971 89.7226 0 0 -2.388,-1.969 z"
           style="fill:#967c99;fill-opacity:0.4" />
        <path
           inkscape:connector-curvature="0"
           id="path10000"
           transform="translate(3406.22,-287.362)"
           d="m 266.174,997.191 a 2.96137,2.50331 13.2421 0 0 -2.664,1.852 2.96137,2.50331 13.2421 0 0 0.168,1.467 l -59.598,32.33 a 4.08979,3.45719 13.2421 0 0 -1.498,-0.64 4.08979,3.45719 13.2421 0 0 -4.773,2.43 4.08979,3.45719 13.2421 0 0 3.189,4.3 4.08979,3.45719 13.2421 0 0 4.773,-2.43 4.08979,3.45719 13.2421 0 0 -0.455,-2.43 l 59.125,-32.59 a 2.96137,2.50331 13.2421 0 0 1.377,0.68 2.96137,2.50331 13.2421 0 0 3.455,-1.76 2.96137,2.50331 13.2421 0 0 -2.308,-3.115 2.96137,2.50331 13.2421 0 0 -0.791,-0.09 z"
           style="fill:#967c99;fill-opacity:0.4" />
        <path
           inkscape:connector-curvature="0"
           id="path10002"
           transform="translate(3406.22,-287.362)"
           d="m 301.541,1000.26 a 2.50331,2.96137 81.5769 0 0 -0.504,0 2.50331,2.96137 81.5769 0 0 -2.562,2.91 2.50331,2.96137 81.5769 0 0 3.296,2.04 2.50331,2.96137 81.5769 0 0 0.05,0 l 22.262,35.7 a 3.45719,4.08979 81.5769 0 0 -1.531,3.22 3.45719,4.08979 81.5769 0 0 4.552,2.82 3.45719,4.08979 81.5769 0 0 3.54,-4.02 3.45719,4.08979 81.5769 0 0 -4.553,-2.82 3.45719,4.08979 81.5769 0 0 -0.291,0.1 l -22.672,-35.46 a 2.50331,2.96137 81.5769 0 0 1.203,-2.4 2.50331,2.96137 81.5769 0 0 -2.793,-2.08 z"
           style="fill:#967c99;fill-opacity:0.4" />
        <path
           inkscape:connector-curvature="0"
           id="path10004"
           transform="translate(3406.22,-287.362)"
           d="m 367.855,965.193 a 2.40479,2.03282 4.54348 0 0 -2.318,1.846 2.40479,2.03282 4.54348 0 0 2.236,2.217 2.40479,2.03282 4.54348 0 0 0.44,0 l 7.279,16.695 a 3.63604,3.07362 4.54348 0 0 -1.33,2.143 3.63604,3.07362 4.54348 0 0 3.383,3.353 3.63604,3.07362 4.54348 0 0 3.867,-2.777 3.63604,3.07362 4.54348 0 0 -3.381,-3.352 3.63604,3.07362 4.54348 0 0 -1.291,0.1 l -7.463,-16.473 a 2.40479,2.03282 4.54348 0 0 1.053,-1.521 2.40479,2.03282 4.54348 0 0 -2.234,-2.217 2.40479,2.03282 4.54348 0 0 -0.241,-0.01 z"
           style="fill:#967c99;fill-opacity:0.4" />
        <path
           inkscape:connector-curvature="0"
           id="path10006"
           transform="translate(3406.22,-287.362)"
           d="m 410.551,1018.99 a 2.50331,2.96137 76.7579 0 0 -0.791,0.1 2.50331,2.96137 76.7579 0 0 -2.311,3.11 2.50331,2.96137 76.7579 0 0 3.457,1.76 2.50331,2.96137 76.7579 0 0 1.356,-0.66 l 70.892,40.18 a 3.45719,4.08979 76.7579 0 0 -0.14,1.81 3.45719,4.08979 76.7579 0 0 4.771,2.43 3.45719,4.08979 76.7579 0 0 3.19,-4.31 3.45719,4.08979 76.7579 0 0 -4.774,-2.43 3.45719,4.08979 76.7579 0 0 -2.103,1.11 l -71.063,-39.75 a 2.50331,2.96137 76.7579 0 0 0.18,-1.49 2.50331,2.96137 76.7579 0 0 -2.664,-1.85 z"
           style="fill:#967c99;fill-opacity:0.4" />
        <path
           inkscape:connector-curvature="0"
           id="path10008"
           transform="translate(3406.22,-287.362)"
           d="m 481.066,992.082 a 3.1634,2.67408 0.277421 0 0 -3.177,2.658 3.1634,2.67408 0.277421 0 0 0,0.1 l -40.957,5.29 a 3.554,3.00427 0.277421 0 0 -3.366,-2.089 3.554,3.00427 0.277421 0 0 -3.568,2.989 3.554,3.00427 0.277421 0 0 3.539,3.02 3.554,3.00427 0.277421 0 0 3.565,-2.92 l 41.154,-5.128 a 3.1634,2.67408 0.277421 0 0 2.779,1.428 3.1634,2.67408 0.277421 0 0 3.178,-2.659 3.1634,2.67408 0.277421 0 0 -3.15,-2.689 z"
           style="fill:#967c99;fill-opacity:0.4" />
        <path
           style="fill:#967c99;fill-opacity:0.4"
           inkscape:connector-curvature="0"
           d="m 3972.68,707.438 c 14.39,-5.448 10.32,-13.136 -9.09,-17.174 -19.41,-4.037 -46.81,-2.894 -61.19,2.553 -14.39,5.447 -10.32,13.135 9.09,17.173 19.41,4.038 46.81,2.895 61.19,-2.552 z m -59.48,1.904 c -18.13,-3.772 -21.94,-10.955 -8.5,-16.044 13.45,-5.09 39.04,-6.157 57.18,-2.385 18.13,3.772 21.94,10.955 8.49,16.044 -13.44,5.09 -39.03,6.157 -57.17,2.385 z"
           id="path10010" />
        <path
           sodipodi:nodetypes="ccccccccccccc"
           id="path10012"
           d="m 3688.24,636.836 c 0.72,-0.333 1.81,-0.292 2.44,0.09 0.63,0.383 0.55,0.963 -0.17,1.296 -0.72,0.332 -1.82,0.291 -2.44,-0.09 -0.11,-0.07 -0.19,-0.141 -0.26,-0.217 l -19.81,3.73 c 0.1,0.287 -0.14,0.582 -0.58,0.785 -0.72,0.333 -1.82,0.292 -2.44,-0.09 -0.63,-0.383 -0.55,-0.963 0.17,-1.295 0.72,-0.333 1.81,-0.292 2.44,0.09 0.1,0.06 0.16,0.114 0.22,0.175 l 19.84,-3.7 c 0,-0.283 0.15,-0.574 0.59,-0.774 z"
           inkscape:connector-curvature="0"
           style="fill:#967c99;fill-opacity:0.8" />
        <path
           inkscape:connector-curvature="0"
           id="path10014"
           transform="translate(3406.22,-287.362)"
           d="m 420.801,964.994 a 2.37971,2.01162 2.26337 0 0 -2.457,1.916 2.37971,2.01162 2.26337 0 0 2.299,2.106 2.37971,2.01162 2.26337 0 0 2.152,-1.002 l 55.982,10.945 a 3.28649,2.77813 2.26337 0 0 0,0.01 3.28649,2.77813 2.26337 0 0 3.176,2.906 3.28649,2.77813 2.26337 0 0 3.393,-2.647 3.28649,2.77813 2.26337 0 0 -3.174,-2.906 3.28649,2.77813 2.26337 0 0 -3.17,1.738 l -55.908,-10.875 a 2.37971,2.01162 2.26337 0 0 0,-0.09 2.37971,2.01162 2.26337 0 0 -2.299,-2.106 z"
           style="fill:#967c99;fill-opacity:0.4" />
        <path
           style="fill:#967c99;fill-opacity:0.8"
           inkscape:connector-curvature="0"
           d="m 3819.55,633.442 c -0.71,-0.215 -1.72,-0.04 -2.25,0.396 -0.53,0.435 -0.39,0.961 0.32,1.176 0.71,0.215 1.72,0.04 2.25,-0.396 0.1,-0.08 0.16,-0.154 0.21,-0.233 l 18.79,0.915 c 0,0.271 0.2,0.519 0.64,0.651 0.71,0.215 1.71,0.04 2.24,-0.397 0.53,-0.434 0.39,-0.96 -0.32,-1.176 -0.71,-0.215 -1.72,-0.04 -2.25,0.397 -0.1,0.06 -0.13,0.126 -0.18,0.191 l -18.81,-0.884 c 0,-0.267 -0.22,-0.511 -0.64,-0.64 z"
           id="path10016"
           sodipodi:nodetypes="ccccccccccccc" />
        <path
           sodipodi:nodetypes="ccccccccccc"
           style="fill:#967c99;fill-opacity:1"
           d="m 3854.08,621.817 c -0.71,-0.01 -1.28,0.249 -1.26,0.587 0,0.295 0.47,0.557 1.08,0.622 l 0.75,5.768 c -0.84,0.06 -1.43,0.396 -1.41,0.8 0,0.467 0.84,0.862 1.83,0.881 0.98,0.02 1.77,-0.343 1.74,-0.811 0,-0.436 -0.74,-0.815 -1.66,-0.872 l -0.79,-5.755 c 0.62,-0.04 1.06,-0.284 1.05,-0.582 0,-0.338 -0.61,-0.624 -1.33,-0.638 z"
           id="path10018"
           inkscape:connector-curvature="0" />
        <path
           sodipodi:nodetypes="cccccccccccccc"
           id="path10020"
           d="m 3957.25,665.428 c -0.83,0.07 -1.54,-0.398 -1.57,-1.043 0,-0.644 0.6,-1.222 1.43,-1.29 0.83,-0.07 1.53,0.399 1.57,1.043 0,0.112 0,0.22 0,0.326 l 28.31,7.426 c 0.25,-0.321 0.69,-0.554 1.19,-0.596 0.83,-0.07 1.54,0.399 1.58,1.043 0,0.644 -0.61,1.222 -1.44,1.29 -0.83,0.07 -1.53,-0.398 -1.57,-1.043 0,-0.09 0,-0.181 0,-0.269 l -28.31,-7.47 c -0.25,0.314 -0.68,0.542 -1.18,0.583 z"
           inkscape:connector-curvature="0"
           style="fill:#967c99;fill-opacity:0.6" />
        <path
           sodipodi:nodetypes="cccccccccccccc"
           id="path10022"
           d="m 3887.39,662.122 c -0.99,0.353 -2,0.01 -2.25,-0.764 -0.26,-0.774 0.34,-1.689 1.33,-2.042 0.99,-0.352 2,-0.01 2.26,0.765 0,0.137 0.1,0.273 0.1,0.412 l 27.16,-0.893 c 0.2,-0.474 0.66,-0.9 1.27,-1.116 0.99,-0.352 2,-0.01 2.25,0.764 0.26,0.775 -0.34,1.689 -1.33,2.042 -0.99,0.353 -2,0.01 -2.26,-0.764 0,-0.113 0,-0.225 0,-0.338 l -27.17,0.837 c -0.21,0.467 -0.66,0.885 -1.26,1.097 z"
           inkscape:connector-curvature="0"
           style="fill:#967c99;fill-opacity:0.6" />
        <path
           style="fill:#967c99;fill-opacity:0.7"
           inkscape:connector-curvature="0"
           d="m 3886.8,654.159 c -0.78,0.503 -1.71,0.414 -2.09,-0.198 -0.37,-0.613 -0.1,-1.517 0.73,-2.02 0.78,-0.503 1.72,-0.414 2.09,0.199 0.1,0.11 0.1,0.223 0.13,0.343 l 22.77,-6.927 c 0.1,-0.448 0.38,-0.746 0.86,-1.054 0.89,-0.355 1.6,-0.07 1.77,0.278 0.38,0.613 0.37,1.279 -0.41,1.782 -0.78,0.503 -1.72,0.414 -2.09,-0.199 0,-0.09 -0.1,-0.184 -0.12,-0.278 l -22.78,6.879 c -0.1,0.443 -0.39,0.892 -0.86,1.195 z"
           id="path10024"
           sodipodi:nodetypes="cccccccccccccc" />
        <path
           style="fill:#967c99;fill-opacity:0.6"
           inkscape:connector-curvature="0"
           d="m 3423.36,681.127 c 11.89,-4.502 8.52,-10.858 -7.52,-14.196 -16.05,-3.337 -38.69,-2.392 -50.58,2.11 -11.9,4.503 -8.53,10.859 7.51,14.196 16.05,3.338 38.7,2.393 50.59,-2.11 z m -49.17,1.575 c -14.99,-3.118 -18.14,-9.056 -7.03,-13.263 11.12,-4.207 32.27,-5.09 47.26,-1.972 14.99,3.118 18.14,9.057 7.03,13.264 -11.11,4.207 -32.27,5.089 -47.26,1.971 z"
           id="path10026" />
        <path
           style="fill:#967c99;fill-opacity:0.7"
           inkscape:connector-curvature="0"
           d="m 3477.75,646.105 c 4.75,-1.797 3.41,-4.333 -3,-5.665 -6.4,-1.332 -15.44,-0.955 -20.18,0.842 -4.75,1.797 -3.4,4.333 3,5.665 6.4,1.332 15.44,0.955 20.18,-0.842 z m -19.62,0.628 c -5.98,-1.244 -7.23,-3.614 -2.8,-5.292 4.43,-1.679 12.88,-2.031 18.86,-0.787 5.98,1.244 7.24,3.614 2.8,5.292 -4.43,1.679 -12.87,2.031 -18.86,0.787 z"
           id="path10028" />
        <path
           style="fill:#967c99;fill-opacity:0.7"
           inkscape:connector-curvature="0"
           d="m 4013.19,630.096 c 2.84,-1.077 2.04,-2.596 -1.8,-3.394 -3.83,-0.798 -9.25,-0.572 -12.09,0.504 -2.84,1.077 -2.04,2.596 1.8,3.394 3.84,0.798 9.25,0.572 12.09,-0.504 z m -11.75,0.376 c -3.59,-0.745 -4.34,-2.165 -1.68,-3.17 2.65,-1.006 7.71,-1.217 11.3,-0.472 3.58,0.746 4.33,2.165 1.67,3.171 -2.65,1.005 -7.71,1.216 -11.29,0.471 z"
           id="path10030" />
        <path
           sodipodi:nodetypes="cccccccccccccc"
           id="path10032"
           d="m 3503.19,635.538 c 0.61,-0.282 1.54,-0.247 2.07,0.08 0.53,0.325 0.47,0.816 -0.14,1.098 -0.62,0.281 -1.54,0.247 -2.07,-0.08 -0.1,-0.06 -0.16,-0.118 -0.22,-0.183 l -17.79,3.834 c 0.1,0.242 -0.12,0.492 -0.5,0.665 -0.61,0.281 -1.53,0.247 -2.06,-0.08 -0.54,-0.324 -0.47,-0.816 0.14,-1.097 0.61,-0.282 1.54,-0.247 2.07,0.08 0.1,0.05 0.14,0.1 0.19,0.149 l 17.82,-3.809 c 0,-0.24 0.12,-0.486 0.49,-0.655 z"
           inkscape:connector-curvature="0"
           style="fill:#967c99;fill-opacity:0.7" />
        <path
           id="path10034"
           d="m 3984.24,628.641 c 0,-0.194 0.34,-0.325 0.79,-0.291 0.37,0.03 0.68,0.158 0.79,0.312 l 8.65,0.338 c 0,-0.177 0.37,-0.293 0.79,-0.261 0.45,0.03 0.82,0.218 0.83,0.412 0,0.195 -0.35,0.325 -0.79,0.292 -0.37,-0.03 -0.69,-0.16 -0.79,-0.315 l -8.66,-0.329 c 0,0.174 -0.37,0.287 -0.79,0.255 -0.44,-0.03 -0.81,-0.218 -0.82,-0.413 z"
           inkscape:connector-curvature="0"
           style="fill:#967c99;fill-opacity:0.7" />
        <path
           id="path10036"
           d="m 3439.02,671.279 c -1.25,-0.34 -2.45,0.172 -2.69,1.142 -0.24,0.971 0.71,1.792 1.95,2.132 1.25,0.339 2.32,0.07 2.56,-0.902 0,-0.171 0,-0.339 0,-0.509 l 41.09,-2.139 c 0.3,0.561 0.89,1.039 1.65,1.246 1.25,0.34 2.45,-0.172 2.69,-1.142 0.24,-0.97 -0.57,-2.032 -1.82,-2.372 -1.24,-0.339 -2.44,0.172 -2.68,1.142 0,0.141 0,0.28 0,0.419 l -41.09,2.208 c -0.3,-0.552 -0.89,-1.02 -1.64,-1.225 z"
           inkscape:connector-curvature="0"
           style="fill:#967c99;fill-opacity:0.6"
           sodipodi:nodetypes="cccccccccccccc" />
        <path
           inkscape:connector-curvature="0"
           id="path10038"
           transform="translate(3406.22,-287.362)"
           d="m 647.479,975.645 a 1.8217,2.15504 74.0453 0 0 -0.786,0.1 1.8217,2.15504 74.0453 0 0 -1.57,2.344 1.8217,2.15504 74.0453 0 0 2.572,1.16 1.8217,2.15504 74.0453 0 0 0.04,-0.01 l 19.466,23.631 a 2.51585,2.9762 74.0453 0 0 -0.799,2.47 2.51585,2.9762 74.0453 0 0 3.555,1.6 2.51585,2.9762 74.0453 0 0 2.17,-3.23 2.51585,2.9762 74.0453 0 0 -3.553,-1.61 2.51585,2.9762 74.0453 0 0 -0.205,0.1 l -19.738,-23.417 a 1.8217,2.15504 74.0453 0 0 0.639,-1.846 1.8217,2.15504 74.0453 0 0 -1.787,-1.256 z"
           style="fill:#967c99;fill-opacity:0.4" />
      </g>
    </g>
    <g
       id="g4566"
       transform="translate(691.961,216.179)">
      <g
         id="g4917"
         transform="translate(-447.125,-303.557)">
        <path
           inkscape:connector-curvature="0"
           style="fill:#784421;fill-opacity:1;fill-rule:evenodd;stroke:none;stroke-width:0.768696;stroke-miterlimit:4;stroke-dasharray:none;stroke-opacity:1"
           d="m 69.3975,832.999 c 6.3603,6.736 13.2807,11.615 21.73,15.414 -3e-4,10e-4 -0.027,0.04 -0.027,0.04 2.1067,1.638 2.5474,1.991 3.2835,3.093 1.4033,2.749 2.1053,3.95 4.1525,5.671 0.8867,0.886 1.9775,1.541 3.1765,1.907 0.03,0 0.06,0 0.09,-0.01 0.07,0.04 5.375,3.133 6.968,3.634 1.994,0.63 2.567,-0.652 1.715,-1.574 -0.77,-0.831 -2.594,-1.549 -4.139,-2.451 -0.656,-0.408 -1.301,-0.833 -1.934,-1.276 0.08,-0.103 0.162,-0.21 0.236,-0.32 0.485,0.259 5.961,3.185 7.648,3.68 2.201,0.645 2.602,-0.746 1.561,-1.731 -0.936,-0.885 -2.968,-1.628 -4.735,-2.576 -0.968,-0.52 -1.813,-1.036 -2.537,-1.486 0.02,-0.05 0.05,-0.103 0.06,-0.156 0,-0.01 0.02,-0.06 0.02,-0.08 0.577,0.213 6.949,2.57 8.73,2.836 2.326,0.346 2.768,-1.161 1.679,-2.028 -0.981,-0.781 -3.126,-1.256 -4.985,-1.981 -1.479,-0.589 -2.928,-1.251 -4.34,-1.985 l 0.277,-0.535 c 0.858,0.128 6.906,1.026 8.769,0.891 2.492,-0.18 2.633,-1.832 1.318,-2.473 -1.187,-0.577 -3.52,-0.571 -5.609,-0.888 -2.48,-0.439 -5.19,-0.873 -7.507,-1.313 0.841,-0.956 3.848,-1.968 5.04,-3.254 1.736,-1.976 0.791,-3.96 -0.688,-3.5 -2.379,1.549 -4.995,4.554 -8.629,5.334 -0.06,0 -0.176,-0.04 -0.222,-0.04 -0.7585,0.05 -4.9031,-2.323 -5.2438,-2.746 0,-0.01 -0.02,0 -0.029,-0.01 -6.8378,-5.149 -10.7641,-13.297 -16.0086,-17.027 4.4887,-7.334 10.4261,-12.335 13.1907,-19.864 -2.3904,-6.104 -3.2838,-6.502 -5.839,-11.952 -1.4136,1.828 -2.8711,4.05 -4.2523,8.567 -5.073,8.159 -14.7015,17.903 -15.7621,23.11 -0.4039,4.018 2.4074,6.545 2.8407,7.073 z"
           id="path5005-7-5"
           sodipodi:nodetypes="cccccccccccccccccccccccccccccccccccccccc" />
        <path
           inkscape:connector-curvature="0"
           style="fill:#784421;fill-opacity:1;fill-rule:evenodd;stroke:none;stroke-width:0.987728;stroke-miterlimit:4;stroke-dasharray:none;stroke-opacity:1"
           d="m 134.826,867.533 c -8.279,0.941 -10.951,2.41 -22.239,5.219 l -16.235,-2.184 c 1.3473,27.86 5.464,42.86 8.594,70.347 0.68,5.969 -1.069,-1.341 -0.693,7.924 0.181,4.443 6.937,20.29 7.844,29.563 -0.22,0.883 -0.979,0.866 0.08,2.884 -0.03,1.417 -0.105,3.266 -0.228,3.675 l -0.755,2.514 c -0.472,0.766 -0.869,2.01 -0.765,2.973 l 2.922,0.737 7.035,-0.318 c 0.114,-0.742 -0.03,-1.571 -0.675,-2.564 -0.508,-1.163 -1.716,-3.99 -1.996,-6.291 -0.196,-1.148 0.671,-0.712 -0.583,-3.113 -1.766,-12.056 0.533,-17.559 0.441,-27.448 l 2.524,-56.404 c 1.646,10.673 3.655,24.209 3.341,26.125 -3.706,41.65 7.592,45.105 6.012,56.815 -1.762,5.694 2.054,4.865 3.182,5.155 3.381,0.872 3.795,1.526 3.795,1.526 1.834,2.254 9.746,11.926 10.664,4.767 0.04,-0.329 -1.6,-1.15 -1.951,-2.088 0,0 -0.156,-0.893 -0.877,-2.423 -0.991,-2.101 -3.765,-5.915 -5.559,-7.352 0,0 -1.662,-0.833 -2.578,-4.568 -2.378,-15.082 3.458,-44.328 4.45,-46.29 1.29,-2.551 0.843,-59.285 0.843,-59.285 z"
           id="path10046"
           sodipodi:nodetypes="cccssccscccccccccccscscsccccc" />
        <path
           inkscape:connector-curvature="0"
           d="m 135.695,984.276 c 0,0 0.749,0.261 2.139,1.983 4.989,7.502 8.024,5.961 11.388,5.71 2.464,-0.587 0.75,0.552 0.36,0.533 -1.942,0.286 -4.453,0.881 -6.042,0.08 -3.332,-1.866 -5.833,-4.463 -7.931,-6.711 -0.755,1.593 -0.245,4.475 0.08,6.63 l -3.216,-0.02 c 1.73,-1.907 -1.809,-7.558 -2.814,-8.681 0,0 -1.073,-1.347 0.59,-0.97 1.771,0.314 1.678,0.338 3.441,0.815 z"
           style="fill:#28170b;fill-opacity:1;fill-rule:evenodd;stroke:none;stroke-width:0.987728;stroke-miterlimit:4;stroke-dasharray:none;stroke-opacity:1"
           id="path10042"
           sodipodi:nodetypes="cccccccccccc" />
        <path
           inkscape:connector-curvature="0"
           d="m 110.668,993.015 c 0,0 -1.322,-0.515 0.451,-0.597 3.13,1.21 9.906,-0.772 9.892,0.07 l -0.01,0.593 c -2.348,0.659 -5.691,0.624 -10.334,-0.06 z"
           style="fill:#2b1100;fill-opacity:1;fill-rule:evenodd;stroke:none;stroke-width:0.987728;stroke-miterlimit:4;stroke-dasharray:none;stroke-opacity:1"
           id="path10044"
           sodipodi:nodetypes="ccscc" />
        <path
           sodipodi:nodetypes="cccccccccccscccccccc"
           inkscape:connector-curvature="0"
           style="fill:#784421;fill-opacity:1;fill-rule:evenodd;stroke:none;stroke-width:0.987728;stroke-miterlimit:4;stroke-dasharray:none;stroke-opacity:1"
           d="m 139.407,717.779 -49.3772,0.278 2.6444,19.511 c -2.5426,-1.241 -2.5046,1.571 -2.5046,1.571 -0.6454,3.526 0.7285,10.629 1.6384,11.93 0.9153,2.495 3.4147,2.569 5.0904,2.617 0.6083,3.756 0.4955,4.382 1.5681,9.003 0.9678,3.147 1.5875,5.135 3.8765,7.452 1.521,1.516 2.945,2.5 4.428,3.562 1.46,0.811 2.535,1.538 7.141,2.866 2.659,0.334 5.642,0.143 7.615,-1.194 4.087,-2.43 7.394,-5.473 9.627,-9.309 2.075,-3.564 2.21,-7.481 2.813,-12.891 2.443,0.75 3.307,-0.65 3.996,-1.507 0.995,-1.239 4.63,-12.186 3.762,-14.759 -0.694,-2.056 -2.165,-1.071 -3.487,0.935 0.138,-5.651 1.477,-11.308 1.546,-16.917 h -0.451 c 0.02,-1.05 0.07,-2.104 0.08,-3.152 z"
           id="path10050" />
        <path
           sodipodi:nodetypes="ccccccccc"
           inkscape:connector-curvature="0"
           d="m 100.244,785.754 c 0.02,2.822 4.984,5.447 4.984,5.447 0,0 10.614,18.036 13.786,18.566 3.173,0.53 15.729,-24.18 15.729,-24.18 0,0 -8.748,-2.695 -11.087,-5.209 -1.208,-1.947 -0.707,-5.762 -0.707,-5.762 -3.387,2.765 -8.634,3.667 -15.134,-0.158 0.501,4.043 0.998,5.87 -0.306,6.886 -1.618,1.94 -7.266,3.831 -7.265,4.41 z"
           style="fill:#784421;fill-opacity:1;fill-rule:evenodd;stroke:none;stroke-width:0.987728;stroke-miterlimit:4;stroke-dasharray:none;stroke-opacity:1"
           id="path10052" />
        <circle
           r="1.13371"
           cy="750.606"
           cx="94.4507"
           id="circle4896"
           style="color:#000000;clip-rule:nonzero;display:inline;overflow:visible;visibility:visible;opacity:1;isolation:auto;mix-blend-mode:normal;color-interpolation:sRGB;color-interpolation-filters:linearRGB;solid-color:#000000;solid-opacity:1;fill:#008000;fill-opacity:1;fill-rule:nonzero;stroke:none;stroke-width:0.5;stroke-linecap:butt;stroke-linejoin:miter;stroke-miterlimit:4;stroke-dasharray:none;stroke-dashoffset:0;stroke-opacity:1;color-rendering:auto;image-rendering:auto;shape-rendering:auto;text-rendering:auto;enable-background:accumulate" />
        <path
           inkscape:connector-curvature="0"
           style="fill:#360f0f;fill-opacity:1;fill-rule:evenodd;stroke:none;stroke-width:0.987728;stroke-miterlimit:4;stroke-dasharray:none;stroke-opacity:1"
           d="m 138.293,699.878 c 3.163,0.538 -3.401,5.43 -1.282,7.872 0.163,0.187 -1.122,-0.838 0.852,-3.329 1.455,-1.835 2.423,1.239 4.538,-0.806 0.82,-0.793 -0.662,-1.031 0.873,-2.853 2.007,-2.382 4.129,1.159 5.033,0.07 0,0 -0.443,-0.436 -0.55,-3.149 -0.02,-0.609 3.022,0.157 1.324,4.473 -0.713,1.812 -3.375,-3.054 -4.222,1.243 -0.82,2.109 -0.629,4.724 -2.724,3.69 0,0 -2.961,-1.436 -3.405,-0.332 -1.563,3.886 1.236,5.204 1.236,5.204 0,0 4.184,-0.571 6.491,5.072 0.725,5.522 -2.529,13.631 -4.599,15.973 -3.526,3.814 -1.514,5.052 -0.889,7.052 -0.933,2.195 -2.643,0.565 -2.779,2.033 -0.108,1.161 0.492,2.523 0.304,3.69 -1.804,1.314 0,0 -1.956,1.132 -0.46,0.266 -0.249,-0.576 1.243,-2.178 0.08,-0.96 -0.896,-0.959 -0.854,-1.868 0.121,-2.562 3.099,-1.094 2.271,-3.617 -1.227,-1.378 -0.295,-4.582 -0.402,-4.343 -1.711,3.804 -3.759,13.577 -4.715,18.321 1.831,-16.935 -1.427,-16.273 1.709,-25.486 0.276,0.352 -3.284,2.136 -5.777,1.244 -0.08,-0.03 4.245,-4.034 2.787,-4.796 -0.534,0.368 -2.396,3.494 -3.336,4.005 -0.721,0.392 0.179,-2.635 -0.72,-2.209 -0.489,0.232 -1.177,0.85 -2.051,0.866 -1.247,0.02 -2.775,-0.593 -3.807,-0.291 -1.887,0.552 -2.624,2.085 -4.129,1.673 -2.158,-0.59 -2.378,-1.134 -4.341,-0.982 -2.087,0.162 -1.922,4.684 -7.038,2.51 -0.131,-0.307 -0.749,-1.891 -2.699,-2.2 -2.446,-0.387 -5.5406,0.828 -6.4729,2.127 -1.25,1.741 1.615,-2.85 3.6309,-3.143 1.942,-0.282 -2.4448,-1.685 -4.111,2.417 0.5358,2.457 -3.389,2.818 -3.0479,5.775 3.0933,26.826 -5.3421,44.794 -7.33,40.534 1.3832,2.418 12.7769,-26.733 4.6519,-38.606 -1.9943,-3.418 -7.6778,-11.136 -9.2659,-18.702 -1.246,-5.936 1.6284,-9.829 2.4375,-10.065 -0.5594,-4.374 4.8949,-9.73 8.7623,-6.718 1.9228,-8.418 6.7661,-3.967 9.9171,-6.605 0,0 5.154,-3.279 7.767,-0.465 8.805,2.167 2.576,0.301 9.977,-1.178 6.32,-2.802 3.068,2.501 9.498,-0.375 5.212,-2.332 6.367,-1.008 9.831,2.413 -1.056,0.101 -3.606,-1.33 -2.631,4.911 z"
           id="path10054"
           sodipodi:nodetypes="cssssssscssccccscscscsccscsssssscssscsccscccccscc" />
        <path
           inkscape:connector-curvature="0"
           style="fill:#2b1100;fill-opacity:1"
           d="m 126.42,739.65 a 3.26033,3.26033 0 0 1 3.208,2.926 30.3722,30.3722 0 0 1 0,3.849 18.893,18.893 0 0 1 -7.23,0.178 l 0.387,-3.683 v -0.03 a 3.45507,3.45507 0 0 1 3.641,-3.241 z"
           class="cls-31"
           id="path10056" />
        <path
           inkscape:connector-curvature="0"
           id="path10060"
           class="cls-31"
           d="m 104.265,739.415 a 3.26033,3.26033 0 0 0 -3.305,2.818 30.3722,30.3722 0 0 0 -0.11,3.847 18.893,18.893 0 0 0 7.221,0.421 l -0.264,-3.694 v -0.03 a 3.45507,3.45507 0 0 0 -3.53,-3.361 z"
           style="fill:#2b1100;fill-opacity:1" />
        <path
           inkscape:connector-curvature="0"
           d="m 116.439,742.201 c -0.02,0.635 2.277,11.148 2.277,11.148 0,0 0.444,2.209 2.526,4.167 -1.055,-2.226 -2.66,-5.26 -2.66,-5.26 l -2.143,-10.055"
           style="fill:#2b1100;fill-opacity:1;fill-rule:evenodd;stroke:#2b1100;stroke-width:0.5;stroke-miterlimit:4;stroke-dasharray:none;stroke-opacity:1"
           id="path10062"
           sodipodi:nodetypes="ccccc" />
        <path
           inkscape:connector-curvature="0"
           d="m 113.878,758.26 c 0.364,0.223 1.943,0.406 3.522,0.724 1.414,0.03 1.537,0.273 3.019,-1.362 -0.423,-0.02 -2.417,0.125 -2.417,0.125 1.692,-0.05 -4.715,0.148 -4.124,0.513"
           style="fill:#2b1100;fill-opacity:1;fill-rule:evenodd;stroke:#2b1100;stroke-opacity:1"
           id="path10064"
           sodipodi:nodetypes="ccccc" />
        <path
           inkscape:connector-curvature="0"
           d="m 116.009,765.518 c -0.528,-0.02 -1.036,-0.06 -1.518,-0.123 -3.291,-0.656 -4.268,-1.586 -4.318,-1.614 -0.338,0.08 0,-0.525 0.158,-0.286 0,0 1.073,0.962 4.203,1.577 3.746,0.501 4.496,0.728 8.235,-0.675 0.186,-0.371 0.573,0.373 0.146,0.292 -3.519,1.293 -3.264,0.95 -6.906,0.829"
           style="fill:#502d16;fill-opacity:1;fill-rule:nonzero;stroke:#2b1100;stroke-width:0.378863;stroke-miterlimit:4;stroke-dasharray:none;stroke-opacity:1"
           id="path10066"
           sodipodi:nodetypes="cccccccc" />
        <path
           inkscape:connector-curvature="0"
           d="m 118.779,867.523 v 0 z"
           style="fill:#c4c0c2;fill-opacity:1;fill-rule:evenodd;stroke:none"
           id="path10068" />
        <path
           inkscape:connector-curvature="0"
           id="path10070"
           style="fill:#deaa87;fill-opacity:1;fill-rule:evenodd;stroke:none;stroke-width:0.987728;stroke-miterlimit:4;stroke-dasharray:none;stroke-opacity:1"
           d="m 87.0392,792.208 c -3.2003,5.731 6.4341,9.829 4.8036,15.741 3.1697,8.878 8.3422,16.339 9.0452,21.293 2.242,12.813 3.149,20.097 3.149,20.097 -21.3396,22.622 -7.0154,74.932 -7.807,105.679 5.487,-4.81 9.375,-5.889 12.737,-5.741 l 3.185,-76.3 -5.056,80.578 c 14.68,-1.801 15.766,9.32 40.641,7.699 -5.678,-44.011 10.856,-77.004 -12.149,-109.935 -1.955,-12.417 0.471,-24.733 1.563,-27.041 2.967,-10.017 5.053,-22.636 5.053,-22.636 0.138,-6.112 3.805,-10.383 3.805,-10.383 -2.392,-3.563 -9.055,-5.442 -15.237,-8.374 -6.222,8.195 -6.169,17.191 -13.687,24.831 -2.415,-4.86 -4.978,-5.72 -15.314,-23.746 -0.89,-0.884 -13.0577,5.448 -14.7318,8.238 z"
           sodipodi:nodetypes="ccccccccccccccccc" />
        <ellipse
           style="color:#000000;clip-rule:nonzero;display:inline;overflow:visible;visibility:visible;opacity:1;isolation:auto;mix-blend-mode:normal;color-interpolation:sRGB;color-interpolation-filters:linearRGB;solid-color:#000000;solid-opacity:1;fill:#784421;fill-opacity:1;fill-rule:nonzero;stroke:none;stroke-width:0.5;stroke-linecap:butt;stroke-linejoin:miter;stroke-miterlimit:4;stroke-dasharray:none;stroke-dashoffset:0;stroke-opacity:1;color-rendering:auto;image-rendering:auto;shape-rendering:auto;text-rendering:auto;enable-background:accumulate"
           id="path4856"
           cx="119.113"
           cy="990.902"
           rx="1.93733"
           ry="2.00414" />
        <ellipse
           ry="1.24395"
           rx="1.20248"
           cy="991.962"
           cx="116.181"
           id="ellipse4858"
           style="color:#000000;clip-rule:nonzero;display:inline;overflow:visible;visibility:visible;opacity:1;isolation:auto;mix-blend-mode:normal;color-interpolation:sRGB;color-interpolation-filters:linearRGB;solid-color:#000000;solid-opacity:1;fill:#784421;fill-opacity:1;fill-rule:nonzero;stroke:none;stroke-width:0.5;stroke-linecap:butt;stroke-linejoin:miter;stroke-miterlimit:4;stroke-dasharray:none;stroke-dashoffset:0;stroke-opacity:1;color-rendering:auto;image-rendering:auto;shape-rendering:auto;text-rendering:auto;enable-background:accumulate" />
        <ellipse
           style="color:#000000;clip-rule:nonzero;display:inline;overflow:visible;visibility:visible;opacity:1;isolation:auto;mix-blend-mode:normal;color-interpolation:sRGB;color-interpolation-filters:linearRGB;solid-color:#000000;solid-opacity:1;fill:#784421;fill-opacity:1;fill-rule:nonzero;stroke:none;stroke-width:0.5;stroke-linecap:butt;stroke-linejoin:miter;stroke-miterlimit:4;stroke-dasharray:none;stroke-dashoffset:0;stroke-opacity:1;color-rendering:auto;image-rendering:auto;shape-rendering:auto;text-rendering:auto;enable-background:accumulate"
           id="ellipse4860"
           cx="114.244"
           cy="991.829"
           rx="1.20248"
           ry="1.24395" />
        <ellipse
           ry="1.07118"
           rx="1.03547"
           cy="991.801"
           cx="112.607"
           id="ellipse4862"
           style="color:#000000;clip-rule:nonzero;display:inline;overflow:visible;visibility:visible;opacity:1;isolation:auto;mix-blend-mode:normal;color-interpolation:sRGB;color-interpolation-filters:linearRGB;solid-color:#000000;solid-opacity:1;fill:#784421;fill-opacity:1;fill-rule:nonzero;stroke:none;stroke-width:0.5;stroke-linecap:butt;stroke-linejoin:miter;stroke-miterlimit:4;stroke-dasharray:none;stroke-dashoffset:0;stroke-opacity:1;color-rendering:auto;image-rendering:auto;shape-rendering:auto;text-rendering:auto;enable-background:accumulate" />
        <ellipse
           style="color:#000000;clip-rule:nonzero;display:inline;overflow:visible;visibility:visible;opacity:1;isolation:auto;mix-blend-mode:normal;color-interpolation:sRGB;color-interpolation-filters:linearRGB;solid-color:#000000;solid-opacity:1;fill:#784421;fill-opacity:1;fill-rule:nonzero;stroke:none;stroke-width:0.5;stroke-linecap:butt;stroke-linejoin:miter;stroke-miterlimit:4;stroke-dasharray:none;stroke-dashoffset:0;stroke-opacity:1;color-rendering:auto;image-rendering:auto;shape-rendering:auto;text-rendering:auto;enable-background:accumulate"
           id="ellipse4864"
           cx="111.204"
           cy="991.333"
           rx="1.03547"
           ry="1.07118" />
        <path
           style="color:#000000;clip-rule:nonzero;display:inline;overflow:visible;visibility:visible;opacity:1;isolation:auto;mix-blend-mode:normal;color-interpolation:sRGB;color-interpolation-filters:linearRGB;solid-color:#000000;solid-opacity:1;fill:#784421;fill-opacity:1;fill-rule:nonzero;stroke:none;stroke-width:0.5;stroke-linecap:butt;stroke-linejoin:miter;stroke-miterlimit:4;stroke-dasharray:none;stroke-dashoffset:0;stroke-opacity:1;color-rendering:auto;image-rendering:auto;shape-rendering:auto;text-rendering:auto;enable-background:accumulate"
           d="m 151.004,989.412 c 1.056,0.333 -0.153,1.747 -0.153,1.747 -1.929,1.38 -4.77,0.999 -4.74,-0.368 0.02,-1.107 -0.778,-2.516 0.944,-1.583 1.257,0.682 2.569,0.09 3.949,0.204 z"
           id="ellipse4866"
           inkscape:connector-curvature="0"
           sodipodi:nodetypes="csssc" />
        <path
           inkscape:connector-curvature="0"
           style="fill:#784421;fill-opacity:1;fill-rule:evenodd;stroke:none;stroke-width:0.768696;stroke-miterlimit:4;stroke-dasharray:none;stroke-opacity:1"
           d="m 104.261,859.278 c 0.876,0.194 1.969,0.578 2.715,1.018 0,0 2.18,0.963 2.659,1.114 1.995,0.629 2.233,-0.786 0.781,-1.307 -0.322,-0.346 -1.407,-0.935 -1.407,-0.935 -0.85,-0.495 -1.297,-0.722 -2.199,-1.249 -0.655,-0.408 -2.035,-1.1 -2.668,-1.543 1.259,0.209 2.512,0.576 3.585,0.762 1.076,0.183 2.375,0.799 3.453,1.073 1.069,0.271 2.422,0.759 2.941,0.911 2.129,0.669 2.836,-0.986 0.535,-1.785 -0.399,-0.377 0,0 -2.177,-1.118 -1.009,-0.519 -1.544,-0.647 -2.558,-1.191 -1.896,-0.618 -1.725,-0.438 -3.803,-0.999 0.737,-0.103 3.557,0.395 4.484,0.463 1.089,0.08 1.199,0.197 2.902,0.86 1.146,0.91 0.727,0.577 2.496,1.463 2.326,0.347 2.834,-1.027 1.01,-2.028 -0.507,-0.404 -0.666,-0.486 -1.474,-1.217 -0.755,-0.683 -2.079,-1.215 -2.977,-1.565 -1.479,-0.589 -2.66,-0.65 -4.473,-1.05 l 0.77,-0.178 c 0.97,0 1.161,-0.01 3.897,0.09 1.122,0.454 3.352,0.906 3.526,1.2 2.369,1.813 5.254,0.745 1.932,-1.709 -0.518,-0.252 -1.438,-1.315 -2.378,-1.501 -1.215,-0.241 -2.668,-0.721 -3.845,-0.899 -2.48,-0.439 -4.671,-0.212 -6.988,-0.652 -1.012,-0.306 -2.452,-0.481 -3.677,1.166 -2.0908,2.812 -3.3178,8.268 -3.3178,8.268 0,0 0.8561,1.149 2.0558,1.515 2.064,0.689 3.515,0.881 4.2,1.024 z"
           id="path4879"
           sodipodi:nodetypes="csccscccsccsccscccsccccccsccsccc" />
        <path
           id="path4875"
           d="m 145.782,791.561 c 1.836,1.643 3.199,2.042 4.586,8.659 1.821,11.171 1.994,29.834 3.357,38.91 3.801,13.969 2.054,38.591 2.054,38.591 0,0 1.57,4.337 1.552,6.555 0.109,0.958 0.326,4.984 0.275,5.827 -0.04,0.619 -0.514,0.814 -0.616,1.398 -0.223,1.282 -0.309,0.771 -0.689,2.064 l -1.125,3.051 c -0.577,1.32 -1.681,2.462 -2.466,3.973 -0.189,0.248 -0.165,0.793 -0.817,0.803 -0.405,1.897 -1.468,0.996 -1.406,1.243 -0.127,1.414 -1.007,1.118 -1.384,0.828 -0.375,-0.403 -0.294,-1.054 0.02,-2.02 0.15,-0.463 1.404,-2.641 1.84,-3.843 0.73,-1.564 0.784,-3.215 1.013,-5.199 0.125,-6.768 -1.028,-5.166 -1.028,-5.166 l 0.357,2.815 c 0.671,2.351 0.872,5.279 -0.646,6.361 -1.485,1.392 -1.844,-4.605 -2.749,-6.85 -1.934,-4.199 -1.732,-4.848 -1.379,-5.514 0.05,-0.04 1.099,-3.077 1.141,-3.1 0.889,-1.735 2.331,-5.658 2.383,-6.223 0,-0.01 0.02,0 0.02,-0.03 -0.16,-14.231 -8.499,-20.463 -5.902,-34.695 -0.521,-9.364 -2.737,-20.013 -3.532,-30.199 0.533,-2.464 1.286,-5.854 1.737,-10.441 0.263,-1.796 1.384,-5.113 3.405,-7.802 z"
           style="opacity:1;fill:#784421;fill-opacity:1;fill-rule:evenodd;stroke:none;stroke-width:0.768696;stroke-miterlimit:4;stroke-dasharray:none;stroke-opacity:1"
           inkscape:connector-curvature="0"
           sodipodi:nodetypes="cccccssccccccscccccccccccccc" />
        <path
           sodipodi:nodetypes="ccccc"
           inkscape:connector-curvature="0"
           id="path4888"
           d="m 148.534,876.331 10.251,8.714 c 0.805,0.942 0.03,1.78 -0.933,1.098 l -10.251,-8.714 c -0.676,-0.762 0.1,-1.55 0.933,-1.098 z"
           style="color:#000000;clip-rule:nonzero;display:inline;overflow:visible;visibility:visible;opacity:1;isolation:auto;mix-blend-mode:normal;color-interpolation:sRGB;color-interpolation-filters:linearRGB;solid-color:#000000;solid-opacity:1;fill:#008000;fill-opacity:1;fill-rule:nonzero;stroke:none;stroke-width:0.5;stroke-linecap:butt;stroke-linejoin:miter;stroke-miterlimit:4;stroke-dasharray:none;stroke-dashoffset:0;stroke-opacity:1;color-rendering:auto;image-rendering:auto;shape-rendering:auto;text-rendering:auto;enable-background:accumulate" />
        <path
           style="color:#000000;clip-rule:nonzero;display:inline;overflow:visible;visibility:visible;opacity:1;isolation:auto;mix-blend-mode:normal;color-interpolation:sRGB;color-interpolation-filters:linearRGB;solid-color:#000000;solid-opacity:1;fill:#800080;fill-opacity:1;fill-rule:nonzero;stroke:none;stroke-width:0.5;stroke-linecap:butt;stroke-linejoin:miter;stroke-miterlimit:4;stroke-dasharray:none;stroke-dashoffset:0;stroke-opacity:1;color-rendering:auto;image-rendering:auto;shape-rendering:auto;text-rendering:auto;enable-background:accumulate"
           d="m 149.465,875.236 10.251,8.713 c 0.805,0.942 0.03,1.781 -0.933,1.098 l -10.251,-8.714 c -0.676,-0.762 0.1,-1.55 0.933,-1.097 z"
           id="path4890"
           inkscape:connector-curvature="0"
           sodipodi:nodetypes="ccccc" />
        <circle
           style="color:#000000;clip-rule:nonzero;display:inline;overflow:visible;visibility:visible;opacity:1;isolation:auto;mix-blend-mode:normal;color-interpolation:sRGB;color-interpolation-filters:linearRGB;solid-color:#000000;solid-opacity:1;fill:#008000;fill-opacity:1;fill-rule:nonzero;stroke:none;stroke-width:0.5;stroke-linecap:butt;stroke-linejoin:miter;stroke-miterlimit:4;stroke-dasharray:none;stroke-dashoffset:0;stroke-opacity:1;color-rendering:auto;image-rendering:auto;shape-rendering:auto;text-rendering:auto;enable-background:accumulate"
           id="path4894"
           cx="135.951"
           cy="750.606"
           r="1.13371" />
        <path
           style="color:#000000;clip-rule:nonzero;display:inline;overflow:visible;visibility:visible;opacity:1;isolation:auto;mix-blend-mode:normal;color-interpolation:sRGB;color-interpolation-filters:linearRGB;solid-color:#000000;solid-opacity:1;fill:#28170b;fill-opacity:1;fill-rule:nonzero;stroke:none;stroke-width:0.5;stroke-linecap:butt;stroke-linejoin:miter;stroke-miterlimit:4;stroke-dasharray:none;stroke-dashoffset:0;stroke-opacity:1;color-rendering:auto;image-rendering:auto;shape-rendering:auto;text-rendering:auto;enable-background:accumulate"
           d="m 111.289,975.096 h 5.611 v 1.002 h -5.611 z"
           id="rect4898"
           inkscape:connector-curvature="0" />
        <path
           id="path4901"
           d="m 129.435,973.741 h 7.082 l 0.4,1.003 h -7.482 z"
           style="color:#000000;clip-rule:nonzero;display:inline;overflow:visible;visibility:visible;opacity:1;isolation:auto;mix-blend-mode:normal;color-interpolation:sRGB;color-interpolation-filters:linearRGB;solid-color:#000000;solid-opacity:1;fill:#28170b;fill-opacity:1;fill-rule:nonzero;stroke:none;stroke-width:0.5;stroke-linecap:butt;stroke-linejoin:miter;stroke-miterlimit:4;stroke-dasharray:none;stroke-dashoffset:0;stroke-opacity:1;color-rendering:auto;image-rendering:auto;shape-rendering:auto;text-rendering:auto;enable-background:accumulate"
           inkscape:connector-curvature="0"
           sodipodi:nodetypes="ccccc" />
        <path
           inkscape:connector-curvature="0"
           style="color:#000000;clip-rule:nonzero;display:inline;overflow:visible;visibility:visible;opacity:1;isolation:auto;mix-blend-mode:normal;color-interpolation:sRGB;color-interpolation-filters:linearRGB;solid-color:#000000;solid-opacity:1;fill:#28170b;fill-opacity:1;fill-rule:nonzero;stroke:none;stroke-width:0.5;stroke-linecap:butt;stroke-linejoin:miter;stroke-miterlimit:4;stroke-dasharray:none;stroke-dashoffset:0;stroke-opacity:1;color-rendering:auto;image-rendering:auto;shape-rendering:auto;text-rendering:auto;enable-background:accumulate"
           d="m 128.937,980.623 7.421,-6.649 0.589,0.811 c -2.619,2.693 -5.737,5.837 -7.571,8.403 -0.724,-1.078 -0.973,-1.738 -0.439,-2.565 z"
           id="path4903"
           sodipodi:nodetypes="ccccc" />
        <path
           id="path4905"
           d="m 140.8,990.176 c 2.13,0.126 5.912,-2.805 6.948,-0.668 -2.257,-0.816 1.108,2.309 -1.236,3.139 -3.383,0.05 -4.13,-1.457 -5.712,-2.471 z"
           style="color:#000000;clip-rule:nonzero;display:inline;overflow:visible;visibility:visible;opacity:1;isolation:auto;mix-blend-mode:normal;color-interpolation:sRGB;color-interpolation-filters:linearRGB;solid-color:#000000;solid-opacity:1;fill:#28170b;fill-opacity:1;fill-rule:nonzero;stroke:none;stroke-width:0.5;stroke-linecap:butt;stroke-linejoin:miter;stroke-miterlimit:4;stroke-dasharray:none;stroke-dashoffset:0;stroke-opacity:1;color-rendering:auto;image-rendering:auto;shape-rendering:auto;text-rendering:auto;enable-background:accumulate"
           inkscape:connector-curvature="0"
           sodipodi:nodetypes="cccc" />
        <path
           sodipodi:nodetypes="cccc"
           inkscape:connector-curvature="0"
           style="color:#000000;clip-rule:nonzero;display:inline;overflow:visible;visibility:visible;opacity:1;isolation:auto;mix-blend-mode:normal;color-interpolation:sRGB;color-interpolation-filters:linearRGB;solid-color:#000000;solid-opacity:1;fill:#28170b;fill-opacity:1;fill-rule:nonzero;stroke:none;stroke-width:0.5;stroke-linecap:butt;stroke-linejoin:miter;stroke-miterlimit:4;stroke-dasharray:none;stroke-dashoffset:0;stroke-opacity:1;color-rendering:auto;image-rendering:auto;shape-rendering:auto;text-rendering:auto;enable-background:accumulate"
           d="m 110.954,987.838 c 2.13,0.126 5.178,0.869 6.213,3.006 -2.257,-0.816 -4.336,-2.668 -6.68,-1.837 z"
           id="path4907" />
        <path
           id="path4909"
           d="m 119.767,987.838 c -2.13,0.126 -2.278,0.535 -2.646,3.006 1.523,-0.916 1.806,-1.332 3.615,-1.136 z"
           style="color:#000000;clip-rule:nonzero;display:inline;overflow:visible;visibility:visible;opacity:1;isolation:auto;mix-blend-mode:normal;color-interpolation:sRGB;color-interpolation-filters:linearRGB;solid-color:#000000;solid-opacity:1;fill:#28170b;fill-opacity:1;fill-rule:nonzero;stroke:none;stroke-width:0.5;stroke-linecap:butt;stroke-linejoin:miter;stroke-miterlimit:4;stroke-dasharray:none;stroke-dashoffset:0;stroke-opacity:1;color-rendering:auto;image-rendering:auto;shape-rendering:auto;text-rendering:auto;enable-background:accumulate"
           inkscape:connector-curvature="0"
           sodipodi:nodetypes="cccc" />
        <path
           style="color:#000000;clip-rule:nonzero;display:inline;overflow:visible;visibility:visible;opacity:1;isolation:auto;mix-blend-mode:normal;color-interpolation:sRGB;color-interpolation-filters:linearRGB;solid-color:#000000;solid-opacity:1;fill:#28170b;fill-opacity:1;fill-rule:nonzero;stroke:none;stroke-width:0.5;stroke-linecap:butt;stroke-linejoin:miter;stroke-miterlimit:4;stroke-dasharray:none;stroke-dashoffset:0;stroke-opacity:1;color-rendering:auto;image-rendering:auto;shape-rendering:auto;text-rendering:auto;enable-background:accumulate"
           d="m 111.611,980.107 2.522,-4.681 0.868,0.501 -2.853,5.484 c -0.238,-0.395 -0.482,-0.786 -0.537,-1.304 z"
           id="path4913"
           inkscape:connector-curvature="0"
           sodipodi:nodetypes="ccccc" />
        <path
           inkscape:connector-curvature="0"
           id="path4915"
           d="m 117.891,980.768 -3.065,-5.342 -0.868,0.501 3.844,6.429 c 0.06,-0.546 0.146,-1.102 0.09,-1.588 z"
           style="color:#000000;clip-rule:nonzero;display:inline;overflow:visible;visibility:visible;opacity:1;isolation:auto;mix-blend-mode:normal;color-interpolation:sRGB;color-interpolation-filters:linearRGB;solid-color:#000000;solid-opacity:1;fill:#28170b;fill-opacity:1;fill-rule:nonzero;stroke:none;stroke-width:0.5;stroke-linecap:butt;stroke-linejoin:miter;stroke-miterlimit:4;stroke-dasharray:none;stroke-dashoffset:0;stroke-opacity:1;color-rendering:auto;image-rendering:auto;shape-rendering:auto;text-rendering:auto;enable-background:accumulate"
           sodipodi:nodetypes="ccccc" />
      </g>
    </g>
  </g>
</svg>
